#!OML:ASF H:\Male1\Project 1\Capture day 1\Session 1\Male1.ASF
:FULLY-SPECIFIED
:DEGREES
256
root 10.9858 15.3002 1.38909 171.199 -264.342 -189.682
lowerback 8.63237 0.71581 -1.04018
upperback 4.0849 0.978785 -1.019
thorax -0.611063 0.537401 -0.55382
lowerneck -8.24467 3.81957 6.25227
upperneck -0.534185 4.67969 -5.77368
head 1.58564 2.24585 -2.7756
rclavicle 8.54774e-015 2.38542e-015
rhumerus -44.4278 5.70659 -86.3945
rradius 47.6269
rwrist -27.0352
rhand -30.9693 2.12683
rfingers 7.12502
rthumb -4.25354 -27.8105
lclavicle 8.54774e-015 2.38542e-015
lhumerus -36.8268 -6.71336 83.3152
lradius 43.4894
lwrist 9.27117
lhand -24.1942 13.5486
lfingers 7.12502
lthumb 2.28978 43.5161
rfemur -13.0575 19.8578 22.897
rtibia 32.1026
rfoot -21.6851 -24.2101
rtoes -30.4658
lfemur -10.6708 -17.2745 -19.9566
ltibia 33.2072
lfoot -23.8802 19.1155
ltoes -8.02638
257
root 10.9828 15.3001 1.38903 171.458 -264.34 -189.356
lowerback 8.52131 0.73394 -1.0514
upperback 4.09734 1.00395 -0.996783
thorax -0.537702 0.549221 -0.524943
lowerneck -8.20499 3.87806 6.32559
upperneck -0.426431 4.75484 -5.79144
head 1.62196 2.28285 -2.79209
rclavicle 1.46107e-014 -1.59028e-015
rhumerus -44.4651 5.48765 -86.367
rradius 47.3803
rwrist -26.6074
rhand -30.9012 1.65798
rfingers 7.12502
rthumb -4.18769 -28.2806
lclavicle 1.46107e-014 -1.59028e-015
lhumerus -36.3351 -6.98629 83.7123
lradius 43.1141
lwrist 9.03226
lhand -24.8023 13.0639
lfingers 7.12502
lthumb 1.70254 43.0369
rfemur -12.8933 20.0209 22.8848
rtibia 31.9475
rfoot -21.7619 -24.2581
rtoes -29.8442
lfemur -10.6551 -17.2374 -20.0026
ltibia 33.2796
lfoot -23.8974 19.0694
ltoes -8.07294
258
root 10.9789 15.2989 1.38722 170.99 -264.264 -189.742
lowerback 8.46733 0.760218 -0.933433
upperback 4.09484 1.0479 -0.98087
thorax -0.508942 0.5721 -0.577721
lowerneck -8.14574 3.89575 6.3144
upperneck -0.352813 4.78093 -5.70577
head 1.63363 2.29767 -2.76025
rclavicle 8.15017e-015 -1.43125e-014
rhumerus -44.443 5.28006 -86.3691
rradius 47.0178
rwrist -26.6249
rhand -30.9405 1.55218
rfingers 7.12502
rthumb -4.22571 -28.3856
lclavicle 8.15017e-015 -1.43125e-014
lhumerus -35.8557 -7.22206 84.0721
lradius 42.5765
lwrist 8.88076
lhand -27.6746 10.108
lfingers 7.12502
lthumb -1.07166 40.085
rfemur -12.6922 20.2288 22.9639
rtibia 31.7275
rfoot -21.7152 -24.337
rtoes -29.6491
lfemur -10.6304 -17.1445 -19.9699
ltibia 33.3865
lfoot -23.9309 19.0543
ltoes -8.33033
259
root 10.9751 15.2972 1.38471 167.884 -264.163 -192.746
lowerback 8.44802 0.755488 -0.52896
upperback 4.10398 1.07215 -0.906355
thorax -0.483467 0.588302 -0.72964
lowerneck -8.14663 3.91588 6.16224
upperneck -0.212782 4.8157 -5.4218
head 1.66613 2.31961 -2.63383
rclavicle -1.35174e-014 4.77083e-015
rhumerus -44.3041 5.06758 -86.3616
rradius 46.4558
rwrist -26.8066
rhand -30.7958 1.81823
rfingers 7.12502
rthumb -4.08597 -28.1223
lclavicle -1.35174e-014 4.77083e-015
lhumerus -35.4753 -7.42296 84.4097
lradius 42.1121
lwrist 8.69907
lhand -23.7065 14.4069
lfingers 7.12502
lthumb 2.76079 44.3688
rfemur -12.4215 20.4332 23.3567
rtibia 31.4621
rfoot -21.6251 -24.466
rtoes -29.6115
lfemur -10.5804 -17.0434 -19.6554
ltibia 33.5158
lfoot -24.0244 19.0177
ltoes -8.50276
260
root 10.9738 15.2965 1.38148 162.773 -264.215 -197.698
lowerback 8.46821 0.64924 0.0108975
upperback 4.12926 0.973003 -0.762941
thorax -0.463426 0.54447 -0.8765
lowerneck -8.1469 3.95793 6.17652
upperneck 0.00948362 4.87038 -5.32257
head 1.73948 2.34788 -2.60004
rclavicle 6.95746e-015 -7.15625e-015
rhumerus -44.1558 4.84405 -86.3037
rradius 45.9246
rwrist -26.9203
rhand -30.6456 2.04436
rfingers 7.12502
rthumb -3.94092 -27.8989
lclavicle 6.95746e-015 -7.15625e-015
lhumerus -35.2789 -7.50421 84.7529
lradius 41.848
lwrist 8.30207
lhand -23.853 13.2143
lfingers 7.12502
lthumb 2.61936 43.178
rfemur -12.034 20.568 23.9667
rtibia 31.2035
rfoot -21.5684 -24.8021
rtoes -29.6345
lfemur -10.4822 -17.0786 -19.179
ltibia 33.635
lfoot -24.0353 18.8874
ltoes -8.54717
261
root 10.97 15.2979 1.38083 161.862 -264.156 -198.509
lowerback 8.4731 0.622485 0.093513
upperback 4.09215 0.942304 -0.700116
thorax -0.504758 0.528633 -0.855957
lowerneck -8.10737 3.96868 6.30836
upperneck 0.257449 4.88076 -5.41838
head 1.82316 2.35075 -2.65673
rclavicle -1.0138e-014 5.1684e-015
rhumerus -44.0806 4.58772 -86.1991
rradius 45.5405
rwrist -26.7542
rhand -30.4646 1.90619
rfingers 7.12502
rthumb -3.76614 -28.0403
lclavicle -1.0138e-014 5.1684e-015
lhumerus -35.2707 -7.40862 85.067
lradius 41.7047
lwrist 7.70042
lhand -23.6668 12.8952
lfingers 7.12502
lthumb 2.79913 42.8566
rfemur -11.8192 20.6988 24.1261
rtibia 31.0032
rfoot -21.3342 -25.0368
rtoes -30.2176
lfemur -10.4196 -16.9666 -19.0839
ltibia 33.6977
lfoot -23.9668 18.7919
ltoes -8.32234
